<mxfile host="app.diagrams.net" modified="2022-07-21T05:57:11.181Z" agent="5.0 (Windows NT 10.0; Win64; x64) AppleWebKit/537.36 (KHTML, like Gecko) Chrome/103.0.0.0 Safari/537.36" etag="BLPh_S0CRS0JkLiMlVgv" version="20.1.3" type="github">
  <diagram id="cbP4TeVID14iARi4cunw" name="Page-1">
    <mxGraphModel dx="868" dy="1582" grid="1" gridSize="10" guides="1" tooltips="1" connect="1" arrows="1" fold="1" page="1" pageScale="1" pageWidth="850" pageHeight="1100" math="0" shadow="0">
      <root>
        <mxCell id="0" />
        <mxCell id="1" parent="0" />
        <mxCell id="SqL-bQP0qlHGwYfn1u_S-1" style="edgeStyle=orthogonalEdgeStyle;rounded=0;orthogonalLoop=1;jettySize=auto;html=1;exitX=1;exitY=0.5;exitDx=0;exitDy=0;" edge="1" parent="1" source="SqL-bQP0qlHGwYfn1u_S-2" target="SqL-bQP0qlHGwYfn1u_S-4">
          <mxGeometry relative="1" as="geometry" />
        </mxCell>
        <mxCell id="SqL-bQP0qlHGwYfn1u_S-2" value="" style="swimlane;startSize=0;fillColor=#e51400;strokeColor=#B20000;swimlaneFillColor=none;swimlaneLine=1;fontColor=#ffffff;" vertex="1" parent="1">
          <mxGeometry x="20" y="215" width="100" height="220" as="geometry" />
        </mxCell>
        <mxCell id="SqL-bQP0qlHGwYfn1u_S-3" value="User Interface" style="text;html=1;align=center;verticalAlign=middle;resizable=0;points=[];autosize=1;strokeColor=none;fillColor=none;" vertex="1" parent="SqL-bQP0qlHGwYfn1u_S-2">
          <mxGeometry y="100" width="100" height="30" as="geometry" />
        </mxCell>
        <mxCell id="SqL-bQP0qlHGwYfn1u_S-4" value="A&lt;br&gt;P&lt;br&gt;I&lt;br&gt;&lt;br&gt;G&lt;br&gt;a&lt;br&gt;t&lt;br&gt;e&lt;br&gt;w&lt;br&gt;a&lt;br&gt;y" style="rounded=0;whiteSpace=wrap;html=1;fillColor=none;strokeColor=#b46504;" vertex="1" parent="1">
          <mxGeometry x="160" y="110" width="40" height="430" as="geometry" />
        </mxCell>
        <mxCell id="SqL-bQP0qlHGwYfn1u_S-5" value="Search Service" style="rounded=0;whiteSpace=wrap;html=1;fillColor=none;strokeColor=#6c8ebf;" vertex="1" parent="1">
          <mxGeometry x="340" y="10" width="100" height="50" as="geometry" />
        </mxCell>
        <mxCell id="SqL-bQP0qlHGwYfn1u_S-6" style="edgeStyle=orthogonalEdgeStyle;rounded=0;orthogonalLoop=1;jettySize=auto;html=1;exitX=1;exitY=0.5;exitDx=0;exitDy=0;entryX=0;entryY=0.5;entryDx=0;entryDy=0;entryPerimeter=0;" edge="1" parent="1" source="SqL-bQP0qlHGwYfn1u_S-7" target="SqL-bQP0qlHGwYfn1u_S-19">
          <mxGeometry relative="1" as="geometry" />
        </mxCell>
        <mxCell id="SqL-bQP0qlHGwYfn1u_S-7" value="Ordering Service" style="rounded=0;whiteSpace=wrap;html=1;fillColor=none;strokeColor=#666666;fontColor=#333333;" vertex="1" parent="1">
          <mxGeometry x="340" y="90" width="100" height="50" as="geometry" />
        </mxCell>
        <mxCell id="SqL-bQP0qlHGwYfn1u_S-8" value="Order Notification Service" style="rounded=0;whiteSpace=wrap;html=1;fillColor=none;strokeColor=#b85450;" vertex="1" parent="1">
          <mxGeometry x="340" y="250" width="100" height="50" as="geometry" />
        </mxCell>
        <mxCell id="SqL-bQP0qlHGwYfn1u_S-9" style="edgeStyle=orthogonalEdgeStyle;rounded=0;orthogonalLoop=1;jettySize=auto;html=1;exitX=1;exitY=0.5;exitDx=0;exitDy=0;entryX=0;entryY=0.5;entryDx=0;entryDy=0;entryPerimeter=0;" edge="1" parent="1" source="SqL-bQP0qlHGwYfn1u_S-10" target="SqL-bQP0qlHGwYfn1u_S-19">
          <mxGeometry relative="1" as="geometry" />
        </mxCell>
        <mxCell id="SqL-bQP0qlHGwYfn1u_S-10" value="Payment Service" style="rounded=0;whiteSpace=wrap;html=1;fillColor=none;strokeColor=default;fontColor=#333333;" vertex="1" parent="1">
          <mxGeometry x="340" y="170" width="100" height="50" as="geometry" />
        </mxCell>
        <mxCell id="SqL-bQP0qlHGwYfn1u_S-11" style="edgeStyle=orthogonalEdgeStyle;rounded=0;orthogonalLoop=1;jettySize=auto;html=1;exitX=1;exitY=0.5;exitDx=0;exitDy=0;entryX=0;entryY=0.5;entryDx=0;entryDy=0;entryPerimeter=0;" edge="1" parent="1" source="SqL-bQP0qlHGwYfn1u_S-12" target="SqL-bQP0qlHGwYfn1u_S-21">
          <mxGeometry relative="1" as="geometry" />
        </mxCell>
        <mxCell id="SqL-bQP0qlHGwYfn1u_S-12" value="Food Inventory Service" style="rounded=0;whiteSpace=wrap;html=1;fillColor=none;strokeColor=#b85450;" vertex="1" parent="1">
          <mxGeometry x="340" y="330" width="100" height="50" as="geometry" />
        </mxCell>
        <mxCell id="SqL-bQP0qlHGwYfn1u_S-13" value="Delivery Service" style="rounded=0;whiteSpace=wrap;html=1;fillColor=none;gradientColor=#ffa500;strokeColor=#d79b00;" vertex="1" parent="1">
          <mxGeometry x="340" y="410" width="100" height="50" as="geometry" />
        </mxCell>
        <mxCell id="SqL-bQP0qlHGwYfn1u_S-14" style="edgeStyle=orthogonalEdgeStyle;rounded=0;orthogonalLoop=1;jettySize=auto;html=1;exitX=1;exitY=0.5;exitDx=0;exitDy=0;entryX=0;entryY=0.5;entryDx=0;entryDy=0;entryPerimeter=0;" edge="1" parent="1" source="SqL-bQP0qlHGwYfn1u_S-15" target="SqL-bQP0qlHGwYfn1u_S-23">
          <mxGeometry relative="1" as="geometry" />
        </mxCell>
        <mxCell id="SqL-bQP0qlHGwYfn1u_S-15" value="Location Update Service" style="rounded=0;whiteSpace=wrap;html=1;fillColor=none;gradientColor=#7ea6e0;strokeColor=#6c8ebf;" vertex="1" parent="1">
          <mxGeometry x="340" y="480" width="100" height="50" as="geometry" />
        </mxCell>
        <mxCell id="SqL-bQP0qlHGwYfn1u_S-16" style="edgeStyle=orthogonalEdgeStyle;rounded=0;orthogonalLoop=1;jettySize=auto;html=1;exitX=1;exitY=0.5;exitDx=0;exitDy=0;entryX=0;entryY=0.5;entryDx=0;entryDy=0;entryPerimeter=0;" edge="1" parent="1" source="SqL-bQP0qlHGwYfn1u_S-17" target="SqL-bQP0qlHGwYfn1u_S-25">
          <mxGeometry relative="1" as="geometry" />
        </mxCell>
        <mxCell id="SqL-bQP0qlHGwYfn1u_S-17" value="Restaurant Listing Service" style="rounded=0;whiteSpace=wrap;html=1;fillColor=none;gradientColor=#97d077;strokeColor=#82b366;" vertex="1" parent="1">
          <mxGeometry x="340" y="560" width="100" height="50" as="geometry" />
        </mxCell>
        <mxCell id="SqL-bQP0qlHGwYfn1u_S-18" value="Search Datastore" style="shape=cylinder3;whiteSpace=wrap;html=1;boundedLbl=1;backgroundOutline=1;size=15;fillColor=none;strokeColor=#6c8ebf;" vertex="1" parent="1">
          <mxGeometry x="610" y="-5" width="60" height="80" as="geometry" />
        </mxCell>
        <mxCell id="SqL-bQP0qlHGwYfn1u_S-19" value="Order Store" style="shape=cylinder3;whiteSpace=wrap;html=1;boundedLbl=1;backgroundOutline=1;size=15;fillColor=none;strokeColor=#666666;fontColor=#333333;" vertex="1" parent="1">
          <mxGeometry x="580" y="110" width="60" height="80" as="geometry" />
        </mxCell>
        <mxCell id="SqL-bQP0qlHGwYfn1u_S-20" style="edgeStyle=orthogonalEdgeStyle;rounded=0;orthogonalLoop=1;jettySize=auto;html=1;exitX=1;exitY=0.5;exitDx=0;exitDy=0;exitPerimeter=0;" edge="1" parent="1" source="SqL-bQP0qlHGwYfn1u_S-21">
          <mxGeometry relative="1" as="geometry">
            <mxPoint x="710" y="355" as="targetPoint" />
          </mxGeometry>
        </mxCell>
        <mxCell id="SqL-bQP0qlHGwYfn1u_S-21" value="Food Inventory Datastore" style="shape=cylinder3;whiteSpace=wrap;html=1;boundedLbl=1;backgroundOutline=1;size=15;fillColor=none;strokeColor=#b85450;" vertex="1" parent="1">
          <mxGeometry x="580" y="315" width="60" height="80" as="geometry" />
        </mxCell>
        <mxCell id="SqL-bQP0qlHGwYfn1u_S-22" style="edgeStyle=orthogonalEdgeStyle;rounded=0;orthogonalLoop=1;jettySize=auto;html=1;exitX=1;exitY=0.5;exitDx=0;exitDy=0;exitPerimeter=0;" edge="1" parent="1" source="SqL-bQP0qlHGwYfn1u_S-23">
          <mxGeometry relative="1" as="geometry">
            <mxPoint x="680" y="40" as="targetPoint" />
          </mxGeometry>
        </mxCell>
        <mxCell id="SqL-bQP0qlHGwYfn1u_S-23" value="Location Store" style="shape=cylinder3;whiteSpace=wrap;html=1;boundedLbl=1;backgroundOutline=1;size=15;fillColor=none;strokeColor=#6c8ebf;gradientColor=#7ea6e0;" vertex="1" parent="1">
          <mxGeometry x="600" y="465" width="60" height="80" as="geometry" />
        </mxCell>
        <mxCell id="SqL-bQP0qlHGwYfn1u_S-24" style="edgeStyle=orthogonalEdgeStyle;rounded=0;orthogonalLoop=1;jettySize=auto;html=1;exitX=1;exitY=0.5;exitDx=0;exitDy=0;exitPerimeter=0;entryX=1;entryY=0.5;entryDx=0;entryDy=0;entryPerimeter=0;" edge="1" parent="1" source="SqL-bQP0qlHGwYfn1u_S-25" target="SqL-bQP0qlHGwYfn1u_S-18">
          <mxGeometry relative="1" as="geometry">
            <Array as="points">
              <mxPoint x="710" y="585" />
              <mxPoint x="710" y="35" />
            </Array>
          </mxGeometry>
        </mxCell>
        <mxCell id="SqL-bQP0qlHGwYfn1u_S-25" value="Restaurant Datastore" style="shape=cylinder3;whiteSpace=wrap;html=1;boundedLbl=1;backgroundOutline=1;size=15;fillColor=none;gradientColor=#97d077;strokeColor=#82b366;" vertex="1" parent="1">
          <mxGeometry x="520" y="545" width="60" height="80" as="geometry" />
        </mxCell>
        <mxCell id="SqL-bQP0qlHGwYfn1u_S-26" value="" style="endArrow=classic;html=1;rounded=0;entryX=0;entryY=0.5;entryDx=0;entryDy=0;exitX=1;exitY=0.5;exitDx=0;exitDy=0;" edge="1" parent="1" source="SqL-bQP0qlHGwYfn1u_S-4" target="SqL-bQP0qlHGwYfn1u_S-7">
          <mxGeometry width="50" height="50" relative="1" as="geometry">
            <mxPoint x="200" y="240" as="sourcePoint" />
            <mxPoint x="250" y="190" as="targetPoint" />
          </mxGeometry>
        </mxCell>
        <mxCell id="SqL-bQP0qlHGwYfn1u_S-27" value="" style="endArrow=classic;html=1;rounded=0;entryX=0;entryY=0.5;entryDx=0;entryDy=0;" edge="1" parent="1" target="SqL-bQP0qlHGwYfn1u_S-10">
          <mxGeometry width="50" height="50" relative="1" as="geometry">
            <mxPoint x="200" y="322.5" as="sourcePoint" />
            <mxPoint x="280" y="210" as="targetPoint" />
          </mxGeometry>
        </mxCell>
        <mxCell id="SqL-bQP0qlHGwYfn1u_S-28" value="" style="endArrow=classic;html=1;rounded=0;entryX=0;entryY=0.5;entryDx=0;entryDy=0;" edge="1" parent="1" target="SqL-bQP0qlHGwYfn1u_S-5">
          <mxGeometry width="50" height="50" relative="1" as="geometry">
            <mxPoint x="200" y="322.5" as="sourcePoint" />
            <mxPoint x="305" y="120" as="targetPoint" />
          </mxGeometry>
        </mxCell>
        <mxCell id="SqL-bQP0qlHGwYfn1u_S-29" value="" style="endArrow=classic;html=1;rounded=0;entryX=0;entryY=0.5;entryDx=0;entryDy=0;" edge="1" parent="1" target="SqL-bQP0qlHGwYfn1u_S-8">
          <mxGeometry width="50" height="50" relative="1" as="geometry">
            <mxPoint x="200" y="322.5" as="sourcePoint" />
            <mxPoint x="280" y="210" as="targetPoint" />
          </mxGeometry>
        </mxCell>
        <mxCell id="SqL-bQP0qlHGwYfn1u_S-30" value="" style="endArrow=classic;html=1;rounded=0;entryX=0;entryY=0.5;entryDx=0;entryDy=0;" edge="1" parent="1" target="SqL-bQP0qlHGwYfn1u_S-17">
          <mxGeometry width="50" height="50" relative="1" as="geometry">
            <mxPoint x="200" y="322.5" as="sourcePoint" />
            <mxPoint x="280" y="210" as="targetPoint" />
          </mxGeometry>
        </mxCell>
        <mxCell id="SqL-bQP0qlHGwYfn1u_S-31" value="" style="endArrow=classic;html=1;rounded=0;entryX=0;entryY=0.5;entryDx=0;entryDy=0;" edge="1" parent="1" target="SqL-bQP0qlHGwYfn1u_S-12">
          <mxGeometry width="50" height="50" relative="1" as="geometry">
            <mxPoint x="200" y="322.5" as="sourcePoint" />
            <mxPoint x="300" y="180" as="targetPoint" />
          </mxGeometry>
        </mxCell>
        <mxCell id="SqL-bQP0qlHGwYfn1u_S-32" value="" style="endArrow=classic;html=1;rounded=0;entryX=0;entryY=0.5;entryDx=0;entryDy=0;exitX=1;exitY=0.5;exitDx=0;exitDy=0;" edge="1" parent="1" source="SqL-bQP0qlHGwYfn1u_S-4" target="SqL-bQP0qlHGwYfn1u_S-13">
          <mxGeometry width="50" height="50" relative="1" as="geometry">
            <mxPoint x="200" y="347.5" as="sourcePoint" />
            <mxPoint x="280" y="380" as="targetPoint" />
          </mxGeometry>
        </mxCell>
        <mxCell id="SqL-bQP0qlHGwYfn1u_S-33" value="" style="endArrow=classic;html=1;rounded=0;entryX=0;entryY=0.5;entryDx=0;entryDy=0;" edge="1" parent="1" target="SqL-bQP0qlHGwYfn1u_S-15">
          <mxGeometry width="50" height="50" relative="1" as="geometry">
            <mxPoint x="200" y="320" as="sourcePoint" />
            <mxPoint x="300" y="375" as="targetPoint" />
          </mxGeometry>
        </mxCell>
        <mxCell id="SqL-bQP0qlHGwYfn1u_S-34" value="" style="endArrow=classic;html=1;rounded=0;entryX=0;entryY=0.5;entryDx=0;entryDy=0;entryPerimeter=0;exitX=1;exitY=0.5;exitDx=0;exitDy=0;" edge="1" parent="1" source="SqL-bQP0qlHGwYfn1u_S-5" target="SqL-bQP0qlHGwYfn1u_S-18">
          <mxGeometry width="50" height="50" relative="1" as="geometry">
            <mxPoint x="400" y="160" as="sourcePoint" />
            <mxPoint x="450" y="110" as="targetPoint" />
          </mxGeometry>
        </mxCell>
        <mxCell id="SqL-bQP0qlHGwYfn1u_S-35" value="" style="endArrow=classic;startArrow=classic;html=1;rounded=0;entryX=1;entryY=0.5;entryDx=0;entryDy=0;exitX=1;exitY=0.5;exitDx=0;exitDy=0;" edge="1" parent="1" source="SqL-bQP0qlHGwYfn1u_S-13" target="SqL-bQP0qlHGwYfn1u_S-8">
          <mxGeometry width="50" height="50" relative="1" as="geometry">
            <mxPoint x="400" y="360" as="sourcePoint" />
            <mxPoint x="450" y="310" as="targetPoint" />
            <Array as="points">
              <mxPoint x="480" y="435" />
              <mxPoint x="480" y="275" />
            </Array>
          </mxGeometry>
        </mxCell>
        <mxCell id="SqL-bQP0qlHGwYfn1u_S-36" value="" style="endArrow=classic;html=1;rounded=0;exitX=1;exitY=0.75;exitDx=0;exitDy=0;" edge="1" parent="1" source="SqL-bQP0qlHGwYfn1u_S-7">
          <mxGeometry width="50" height="50" relative="1" as="geometry">
            <mxPoint x="400" y="360" as="sourcePoint" />
            <mxPoint x="480" y="280" as="targetPoint" />
            <Array as="points">
              <mxPoint x="480" y="130" />
            </Array>
          </mxGeometry>
        </mxCell>
      </root>
    </mxGraphModel>
  </diagram>
</mxfile>
